<svg xmlns="http://www.w3.org/2000/svg" width="59.936" height="60" viewBox="0 0 59.936 60">
  <path id="Designing_Your_Master_Piece" data-name="Designing Your Master Piece" d="M7.988,60a7.995,7.995,0,0,1-.412-15.979L.194,26.213A2.005,2.005,0,0,1,1.277,23.6L9.6,20.156a2.021,2.021,0,0,1,2.61,1.069L17.649,34.37a11.281,11.281,0,0,1,2.312-.345L15.013,12.909v-.045a1.04,1.04,0,0,1-.024-.223l.375-10.395A2.309,2.309,0,0,1,19.7,1.229l4.955,9.149a.914.914,0,0,1,.07.193c.005.019.026.034.026.055L29.6,31.367a13.6,13.6,0,0,1,2.49-1.735,50.154,50.154,0,0,1,.174-7.092c.131-1.425.321-2.888.563-4.433a7.753,7.753,0,0,1-1.424-2.3,5.852,5.852,0,0,1,1.371-6.377c3.8-4.2,4.25-6.238,3.735-8.172A1,1,0,0,1,38.1.214c.225.177,5.492,4.387,6.117,10.214a10.914,10.914,0,0,1-2.482,8.012,54.041,54.041,0,0,1-.518,9.833,13.422,13.422,0,0,1,3.571,1.29l2.29-5.532v-.012a18.765,18.765,0,0,0,1.681-6.233,1.491,1.491,0,0,1,.706-1.23l7.061-4.407h.01c.014-.009.032-.012.048-.02a1,1,0,0,1,.551-.122c.023,0,.043.016.067.016a1.011,1.011,0,0,1,.234.058.97.97,0,0,1,.155.094.9.9,0,0,1,.109.067.99.99,0,0,1,.141.165c.02.026.055.06.063.074s.011.032.019.047a1,1,0,0,1,.1.242l1.877,8.11a1.491,1.491,0,0,1-.369,1.365,18.792,18.792,0,0,0-3.215,5.582.094.094,0,0,1,0,.023L51.732,38.9a13.425,13.425,0,0,1,.024,5.1,8,8,0,0,1,.232,16Zm0-14a6,6,0,1,0,0,12h44a6,6,0,0,0,0-12,6.234,6.234,0,0,0-1.336.146,1,1,0,0,1-1.17-1.272,11.38,11.38,0,0,0,.506-3.374,11.5,11.5,0,0,0-22.268-4.05,1,1,0,0,1-1.533.45,9.5,9.5,0,0,0-15.2,7.409,1,1,0,0,1-1.289.939A5.889,5.889,0,0,0,8.007,46ZM2.04,25.445,9.288,42.92a11.608,11.608,0,0,1,6.476-7.88l-.809-1.953-3.7,1.532a1.013,1.013,0,0,1-.382.076,1,1,0,0,1-.383-1.923l3.7-1.535-.765-1.848-1.851.767a1,1,0,0,1-.766-1.848l1.851-.768L11.9,25.691,8.2,27.224a1,1,0,0,1-.768-1.846l3.7-1.532L10.364,22ZM46.5,30.652a13.577,13.577,0,0,1,4.294,5.309l3.191-7.7a5.443,5.443,0,0,1-.606.037,6.346,6.346,0,0,1-2.447-.517,6.091,6.091,0,0,1-2.493-1.814Zm-22.91-7.43L26.449,35.41a13.41,13.41,0,0,1,1.5-2.33L23.488,14a4.734,4.734,0,0,1-1.747,1.33l.708,3.021a1,1,0,1,1-1.948.455L19.8,15.789c-.064,0-.131.012-.194.012a4.74,4.74,0,0,1-1.958-.426L22.032,34.1a11.3,11.3,0,0,1,2.181.543L21.641,23.678a1,1,0,0,1,1.947-.455Zm10.468,5.54A13.4,13.4,0,0,1,38.489,28c.247,0,.49.023.737.037.189-1.39.338-2.733.428-4.02-.436.034-.873.067-1.287.067a28.631,28.631,0,0,1-3.892-.331l-.29-.038h0A48.433,48.433,0,0,0,34.056,28.763ZM50.738,18.116A19.791,19.791,0,0,1,49.4,23.555a4.115,4.115,0,0,0,5.59,2.312,19.8,19.8,0,0,1,2.9-4.787l-1.111-4.813L55.293,19.85a1,1,0,1,1-1.848-.766L54.93,15.5ZM34.367,21.722c.125.017.248.031.374.049a21.04,21.04,0,0,0,5.01.241c.031-.981.042-1.947.011-2.881l-5.024-.307h0C34.588,19.826,34.466,20.78,34.367,21.722ZM33.013,13.8a4.17,4.17,0,0,0,1.322,2.993q2.9.181,5.862.36a8.955,8.955,0,0,0,2.023-6.512,13.367,13.367,0,0,0-3.609-7.169c-.319,2.119-1.7,4.371-4.351,7.3h0A4.174,4.174,0,0,0,33.013,13.8ZM17,12.372a3.321,3.321,0,0,0,3.339,1.337v0a3.318,3.318,0,0,0,2.4-2.688L21.052,7.916a5.075,5.075,0,0,1-1.854.922,4.434,4.434,0,0,1-1.015.113,5.932,5.932,0,0,1-1.056-.1Zm.6-10.345a.31.31,0,0,0-.24.29L17.2,6.824a3.4,3.4,0,0,0,1.541.073,3.413,3.413,0,0,0,1.35-.751L17.944,2.182a.312.312,0,0,0-.344-.154ZM25.768,53a1,1,0,0,1-.92-.608A6,6,0,0,1,35.213,46.5a4.908,4.908,0,0,1,2.145-.5A5,5,0,0,1,41.9,48.916a1,1,0,0,1-1.821.83A3,3,0,0,0,37.358,48a2.947,2.947,0,0,0-1.856.656,1.16,1.16,0,0,1-.105.054.769.769,0,0,1-.093.068.783.783,0,0,1-.079.02,1.225,1.225,0,0,1-.382.064,1.317,1.317,0,0,1-.368-.085.953.953,0,0,1-.16-.1.969.969,0,0,1-.155-.13c-.02-.022-.046-.032-.064-.053a.887.887,0,0,1-.053-.1,1.166,1.166,0,0,1-.07-.095A3.96,3.96,0,0,0,30.358,46a4,4,0,0,0-4,4,4.073,4.073,0,0,0,.33,1.607,1,1,0,0,1-.528,1.311.982.982,0,0,1-.386.08ZM13.989,44c0-3.677,3.533-4.9,3.684-4.948v0a1,1,0,0,1,.638,1.9A3.437,3.437,0,0,0,15.989,44a1,1,0,1,1-2,0Zm17.757-6.03a1,1,0,0,1-.727-1.212A6.229,6.229,0,0,1,36.988,32a1,1,0,0,1,.005,2,4.266,4.266,0,0,0-4.037,3.244,1,1,0,0,1-.968.757A.962.962,0,0,1,31.746,37.97ZM38.673,15.7l.006,0a1,1,0,0,1-.8-1.6,5.557,5.557,0,0,0,.992-4.166A1,1,0,1,1,40.8,9.418a7.5,7.5,0,0,1-1.33,5.888,1,1,0,0,1-.8.4Z" fill="#092b37"/>
</svg>
