<svg xmlns="http://www.w3.org/2000/svg" width="71.831" height="62" viewBox="0 0 71.831 62">
  <path id="Rigorous_Proofreading_and_Editing" data-name="Rigorous Proofreading and Editing" d="M-13952.253,62a7.758,7.758,0,0,1-7.749-7.748,2.8,2.8,0,0,1,2.8-2.8h1.847V15.923a4.705,4.705,0,0,1,4.7-4.7h6.7V4.518A4.523,4.523,0,0,1-13939.442,0h23.492a3.653,3.653,0,0,1,2.6,1.077l8.06,8.06a3.643,3.643,0,0,1,1.041,2.085h6.736a4.705,4.705,0,0,1,4.7,4.7V51.456h1.846a2.8,2.8,0,0,1,2.8,2.8A7.758,7.758,0,0,1-13895.92,62Zm-5.644-7.748a5.65,5.65,0,0,0,5.644,5.644h56.333a5.651,5.651,0,0,0,5.645-5.644.692.692,0,0,0-.691-.691h-20.872v1.058A3.165,3.165,0,0,1-13915,57.78h-18.171a3.166,3.166,0,0,1-3.162-3.162V53.561h-20.872A.691.691,0,0,0-13957.9,54.252Zm23.667.367a1.059,1.059,0,0,0,1.058,1.058H-13915a1.059,1.059,0,0,0,1.058-1.058V53.561h-20.286Zm-19.025-38.7V51.456h58.337V15.923a2.6,2.6,0,0,0-2.595-2.6h-6.7v2.835h4.445a2.017,2.017,0,0,1,2.015,2.015v28.43a2.017,2.017,0,0,1-2.015,2.015h-48.639a2.017,2.017,0,0,1-2.015-2.015V25.933a1.052,1.052,0,0,1,1.052-1.052,1.053,1.053,0,0,1,1.053,1.052V46.517h4.355V18.267h-4.355v2.748a1.053,1.053,0,0,1-1.053,1.052,1.052,1.052,0,0,1-1.052-1.052V18.177a2.017,2.017,0,0,1,2.015-2.015h4.445V13.327h-6.7A2.6,2.6,0,0,0-13953.255,15.923Zm49.043,27.549v3.045h4.354V18.266h-4.354V38.553a1.053,1.053,0,0,1-1.053,1.052,1.052,1.052,0,0,1-1.052-1.052V11.738c0-.017,0-.033,0-.05h-5.078a4.523,4.523,0,0,1-4.518-4.518V2.106l-.035,0h-23.492a2.416,2.416,0,0,0-2.413,2.413v42h35.539V43.472a1.052,1.052,0,0,1,1.052-1.052A1.053,1.053,0,0,1-13904.212,43.472Zm-9.6-36.3a2.415,2.415,0,0,0,2.413,2.413h3.577l-5.99-5.991Zm-22.479,30.982a1.052,1.052,0,0,1-1.052-1.052,1.052,1.052,0,0,1,1.052-1.052h24.405a1.052,1.052,0,0,1,1.052,1.052,1.052,1.052,0,0,1-1.052,1.052Zm0-6.026a1.052,1.052,0,0,1-1.052-1.052,1.052,1.052,0,0,1,1.052-1.052h24.405a1.052,1.052,0,0,1,1.052,1.052,1.052,1.052,0,0,1-1.052,1.052Zm1.371-5.81V20.073h-1.371a1.052,1.052,0,0,1-1.052-1.052,1.052,1.052,0,0,1,1.052-1.052h4.866a1.052,1.052,0,0,1,1.052,1.052,1.052,1.052,0,0,1-1.052,1.052h-1.391v6.243a1.053,1.053,0,0,1-1.053,1.052A1.052,1.052,0,0,1-13934.918,26.316Zm10.832-.217a1.052,1.052,0,0,1-1.053-1.052,1.053,1.053,0,0,1,1.053-1.052h12.2a1.052,1.052,0,0,1,1.052,1.052,1.052,1.052,0,0,1-1.052,1.052Zm0-6.026a1.052,1.052,0,0,1-1.053-1.052,1.053,1.053,0,0,1,1.053-1.052h12.2a1.052,1.052,0,0,1,1.052,1.052,1.052,1.052,0,0,1-1.052,1.052Z" transform="translate(13960.002)" fill="#092b37"/>
</svg>
