<svg xmlns="http://www.w3.org/2000/svg" width="62.009" height="62" viewBox="0 0 62.009 62">
  <path id="Submission_of_the_draft" data-name="Submission of the draft" d="M-13958.789,62a1.211,1.211,0,0,1-1.212-1.211V6.054a3.637,3.637,0,0,1,3.633-3.632h2.907V1.211A1.211,1.211,0,0,1-13952.25,0a1.211,1.211,0,0,1,1.211,1.211V2.422h3.391V1.211a1.211,1.211,0,0,1,1.21-1.211,1.212,1.212,0,0,1,1.212,1.211V2.422h3.391V1.211a1.211,1.211,0,0,1,1.21-1.211,1.211,1.211,0,0,1,1.211,1.211V2.422h3.391V1.211A1.211,1.211,0,0,1-13934.812,0a1.211,1.211,0,0,1,1.21,1.211V2.422h3.391V1.211A1.211,1.211,0,0,1-13929,0a1.211,1.211,0,0,1,1.211,1.211V2.422h3.391V1.211A1.212,1.212,0,0,1-13923.187,0a1.211,1.211,0,0,1,1.21,1.211V2.422h2.423a3.637,3.637,0,0,1,3.633,3.632V35.637l10.077-10.078a4.607,4.607,0,0,1,6.507,0,4.607,4.607,0,0,1,0,6.508l-4.777,4.778a1.211,1.211,0,0,1-1.712,0,1.21,1.21,0,0,1,0-1.713l2.272-2.274-3.083-3.082-16.571,16.572,3.083,3.083,7.447-7.448a1.211,1.211,0,0,1,1.713,0,1.209,1.209,0,0,1,0,1.712l-4.956,4.957V60.789a1.212,1.212,0,0,1-1.212,1.211Zm1.211-55.946V59.578h39.233v-8.5l-.926.926a1.217,1.217,0,0,1-.314.227l-9.6,4.8a1.208,1.208,0,0,1-.542.128,1.21,1.21,0,0,1-.856-.355,1.21,1.21,0,0,1-.227-1.4l4.8-9.6a1.207,1.207,0,0,1,.228-.314l7.433-7.434v-32a1.212,1.212,0,0,0-1.21-1.211h-2.423V7.75a1.211,1.211,0,0,1-1.21,1.211,1.212,1.212,0,0,1-1.212-1.211V4.844h-3.391V7.75A1.211,1.211,0,0,1-13929,8.961a1.211,1.211,0,0,1-1.211-1.211V4.844h-3.391V7.75a1.211,1.211,0,0,1-1.21,1.211,1.211,1.211,0,0,1-1.212-1.211V4.844h-3.391V7.75a1.211,1.211,0,0,1-1.211,1.211,1.211,1.211,0,0,1-1.21-1.211V4.844h-3.391V7.75a1.212,1.212,0,0,1-1.212,1.211,1.211,1.211,0,0,1-1.21-1.211V4.844h-3.391V7.75a1.212,1.212,0,0,1-1.211,1.211,1.211,1.211,0,0,1-1.211-1.211V4.844h-2.907A1.212,1.212,0,0,0-13957.578,6.054Zm30.564,47.181,4.843-2.422-2.42-2.42Zm22.882-25.963-.793.792,3.083,3.083.792-.792a2.183,2.183,0,0,0,0-3.083,2.173,2.173,0,0,0-1.541-.637A2.172,2.172,0,0,0-13904.132,27.273Zm-49.138,24.8a1.21,1.21,0,0,1,.365-1.673l4.1-2.632a1.989,1.989,0,0,1,1.9-.139,1.988,1.988,0,0,1,1.149,1.516l.033.216,1.376-.974a1.981,1.981,0,0,1,1.926-.21,1.983,1.983,0,0,1,1.194,1.512l3.443-1.276a2,2,0,0,1,1.97.339,2,2,0,0,1,.711,1.376h.332a1.211,1.211,0,0,1,1.211,1.211,1.211,1.211,0,0,1-1.211,1.211h-.778a1.991,1.991,0,0,1-1.527-.712,1.993,1.993,0,0,1-.437-.941l-3.361,1.246a1.988,1.988,0,0,1-1.7-.149,1.989,1.989,0,0,1-.927-1.236l-1.387.982a1.98,1.98,0,0,1-1.931.208,1.983,1.983,0,0,1-1.193-1.535l-.038-.249-3.544,2.275a1.2,1.2,0,0,1-.653.192A1.209,1.209,0,0,1-13953.27,52.074Zm0-10.552a1.21,1.21,0,0,1,.365-1.673l4.1-2.632a1.986,1.986,0,0,1,1.9-.139,1.986,1.986,0,0,1,1.15,1.516l.033.216,1.376-.975a1.982,1.982,0,0,1,1.926-.21,1.983,1.983,0,0,1,1.194,1.512l3.443-1.276a2,2,0,0,1,1.97.339,2,2,0,0,1,.711,1.376h8.526a1.211,1.211,0,0,1,1.21,1.211,1.21,1.21,0,0,1-1.21,1.211h-8.973a1.987,1.987,0,0,1-1.526-.712,1.986,1.986,0,0,1-.438-.941l-3.361,1.246a1.99,1.99,0,0,1-1.7-.149,1.989,1.989,0,0,1-.927-1.235l-1.387.982a1.98,1.98,0,0,1-1.931.208,1.979,1.979,0,0,1-1.192-1.534l-.039-.25-3.544,2.276a1.2,1.2,0,0,1-.652.192A1.209,1.209,0,0,1-13953.27,41.522Zm44.016-1.252a1.218,1.218,0,0,1-.354-.856,1.217,1.217,0,0,1,.354-.856,1.222,1.222,0,0,1,.857-.355,1.223,1.223,0,0,1,.856.355,1.218,1.218,0,0,1,.354.856,1.219,1.219,0,0,1-.354.856,1.224,1.224,0,0,1-.856.355A1.222,1.222,0,0,1-13909.254,40.271Zm-44.016-9.3a1.211,1.211,0,0,1,.365-1.673l4.1-2.632a1.99,1.99,0,0,1,1.9-.139,1.991,1.991,0,0,1,1.15,1.516l.032.216,1.376-.974a1.983,1.983,0,0,1,1.927-.21,1.984,1.984,0,0,1,1.193,1.512l3.443-1.276a2,2,0,0,1,1.97.339,2,2,0,0,1,.711,1.376h11.917a1.211,1.211,0,0,1,1.21,1.211,1.211,1.211,0,0,1-1.21,1.211h-12.363a1.987,1.987,0,0,1-1.526-.712,1.986,1.986,0,0,1-.438-.941l-3.361,1.246a1.988,1.988,0,0,1-1.7-.149,1.99,1.99,0,0,1-.927-1.235l-1.387.982a1.98,1.98,0,0,1-1.931.208,1.98,1.98,0,0,1-1.192-1.534l-.039-.25-3.544,2.276a1.2,1.2,0,0,1-.652.192A1.21,1.21,0,0,1-13953.27,30.971Zm0-10.552a1.21,1.21,0,0,1,.365-1.673l4.1-2.632a1.989,1.989,0,0,1,1.9-.14,1.988,1.988,0,0,1,1.149,1.516l.033.216,1.376-.975a1.983,1.983,0,0,1,1.927-.21,1.983,1.983,0,0,1,1.193,1.512l3.443-1.276a2,2,0,0,1,1.97.339,2,2,0,0,1,.711,1.376h7.073a1.21,1.21,0,0,1,1.21,1.211,1.211,1.211,0,0,1-1.21,1.211h-7.52a1.987,1.987,0,0,1-1.526-.712,1.987,1.987,0,0,1-.438-.941l-3.361,1.246a1.987,1.987,0,0,1-1.7-.148,1.989,1.989,0,0,1-.927-1.236l-1.387.982a1.977,1.977,0,0,1-1.931.208,1.979,1.979,0,0,1-1.192-1.534l-.039-.25-3.544,2.276a1.2,1.2,0,0,1-.652.192A1.209,1.209,0,0,1-13953.27,20.419Zm29.225.121a1.222,1.222,0,0,1-.354-.856,1.221,1.221,0,0,1,.354-.856,1.218,1.218,0,0,1,.857-.355,1.215,1.215,0,0,1,.855.355,1.219,1.219,0,0,1,.354.856,1.224,1.224,0,0,1-.354.856,1.219,1.219,0,0,1-.855.355A1.226,1.226,0,0,1-13924.045,20.54Z" transform="translate(13960.001)" fill="#092b37"/>
</svg>
