<svg xmlns="http://www.w3.org/2000/svg" width="61.95" height="62" viewBox="0 0 61.95 62">
  <path id="Appropriate_Typesetting_Illustrating_and_Imaging" data-name="Appropriate Typesetting, Illustrating and Imaging" d="M3.881,62A3.888,3.888,0,0,1,0,58.115V3.881A3.886,3.886,0,0,1,3.881,0H9.332a1.211,1.211,0,0,1,0,2.422H3.881a1.461,1.461,0,0,0-1.46,1.46v8.86H59.528V3.881a1.463,1.463,0,0,0-1.463-1.46H20.206a1.211,1.211,0,0,1,0-2.422h37.86A3.888,3.888,0,0,1,61.95,3.881V58.115A3.889,3.889,0,0,1,58.066,62Zm-1.46-3.885a1.463,1.463,0,0,0,1.46,1.463H58.066a1.465,1.465,0,0,0,1.463-1.463V15.163H2.422Zm43.168-6.738a5.043,5.043,0,1,1,5.045,5.042A5.051,5.051,0,0,1,45.589,51.377Zm2.422,0a2.621,2.621,0,1,0,2.623-2.623A2.625,2.625,0,0,0,48.011,51.377Zm-15.527,0a5.043,5.043,0,1,1,5.042,5.042A5.049,5.049,0,0,1,32.484,51.377Zm2.422,0a2.621,2.621,0,1,0,2.62-2.623A2.623,2.623,0,0,0,34.906,51.377Zm-15.527,0a5.042,5.042,0,1,1,5.042,5.042A5.049,5.049,0,0,1,19.379,51.377Zm2.422,0a2.62,2.62,0,1,0,2.62-2.623A2.623,2.623,0,0,0,21.8,51.377Zm-15.53,0a5.043,5.043,0,1,1,5.045,5.042A5.051,5.051,0,0,1,6.271,51.377Zm2.422,0a2.621,2.621,0,1,0,2.623-2.623A2.625,2.625,0,0,0,8.693,51.377ZM7.484,41.556A1.221,1.221,0,0,1,6.275,40.43l0-.085v-20.5a1.211,1.211,0,0,1,1.211-1.211H34.588A1.211,1.211,0,0,1,35.8,19.849v20.5a1.224,1.224,0,0,1-1.213,1.211Zm16.61-5.978,2.256,3.556h6.035l-5.273-8.31ZM9.685,39.134h13.8l-6.9-10.87Zm-.992-2.957,6.87-10.822a1.211,1.211,0,0,1,1.022-.562h0a1.211,1.211,0,0,1,1.022.562l5.053,7.963,3.43-5.4a1.211,1.211,0,0,1,2.045,0l5.242,8.261V21.06H8.693ZM40.91,41.185a1.211,1.211,0,1,1,0-2.422H54.417a1.211,1.211,0,0,1,0,2.422Zm0-6.707a1.211,1.211,0,1,1,0-2.422H54.417a1.211,1.211,0,1,1,0,2.422Zm0-6.707a1.211,1.211,0,0,1,0-2.422H54.417a1.211,1.211,0,0,1,0,2.422Zm0-6.711a1.211,1.211,0,1,1,0-2.422H54.417a1.211,1.211,0,1,1,0,2.422ZM52.231,7.582a1.208,1.208,0,0,1,1.208-1.211h.007a1.211,1.211,0,1,1-1.215,1.211Zm-6.532,0a1.208,1.208,0,0,1,1.208-1.211h.007A1.211,1.211,0,1,1,45.7,7.582Zm-6.529,0a1.208,1.208,0,0,1,1.208-1.211h.007a1.211,1.211,0,1,1-1.215,1.211ZM8.5,8.793a1.211,1.211,0,1,1,0-2.422H26.683a1.211,1.211,0,1,1,0,2.422Zm6.264-6.371a1.211,1.211,0,1,1,.007,0Z" fill="#092b37"/>
</svg>
